Coordinates
version=1
nRows=19
nColumns=63
inDegrees=yes

Units are S.I. units (second, meters, Newtons, ...)
If the header above contains a line with 'inDegrees', this indicates whether rotational values are in degrees (yes) or radians (no).

endheader
time	pelvis_tilt	pelvis_list	pelvis_rotation	pelvis_tx	pelvis_ty	pelvis_tz	hip_flexion_r	hip_adduction_r	hip_rotation_r	knee_angle_r	knee_angle_r_beta	ankle_angle_r	subtalar_angle_r	mtp_angle_r	hip_flexion_l	hip_adduction_l	hip_rotation_l	knee_angle_l	knee_angle_l_beta	ankle_angle_l	subtalar_angle_l	mtp_angle_l	L5_S1_Flex_Ext	L5_S1_Lat_Bending	L5_S1_axial_rotation	L4_L5_Flex_Ext	L4_L5_Lat_Bending	L4_L5_axial_rotation	L3_L4_Flex_Ext	L3_L4_Lat_Bending	L3_L4_axial_rotation	L2_L3_Flex_Ext	L2_L3_Lat_Bending	L2_L3_axial_rotation	L1_L2_Flex_Ext	L1_L2_Lat_Bending	L1_L2_axial_rotation	L1_T12_Flex_Ext	L1_T12_Lat_Bending	L1_T12_axial_rotation	Abs_r3	Abs_r2	Abs_r1	Abs_t1	Abs_t2	neck_flexion	neck_bending	neck_rotation	arm_flex_r	arm_add_r	arm_rot_r	elbow_flex_r	pro_sup_r	wrist_flex_r	wrist_dev_r	arm_flex_l	arm_add_l	arm_rot_l	elbow_flex_l	pro_sup_l	wrist_flex_l	wrist_dev_l
1.172414	-2.894436	-0.684852	86.564034	0.120439	0.962017	0.322338	-2.242089	-1.343103	-26.945199	6.743853	0.117702	11.722101	18.461417	0.000000	0.914704	1.607070	-0.410773	7.942250	0.138618	7.894021	-9.925464	0.000000	-0.138488	-0.255270	-0.292019	-0.257186	-0.339509	-0.310270	-0.227522	-0.620663	-0.310270	-0.158278	-0.620663	-0.255517	-0.128600	-0.520546	-0.237265	-0.079132	-0.395413	-0.219014	-0.989205	-2.887662	-1.624122	0.000000	0.000000	-14.926750	1.614009	-2.862143	42.668904	-8.895115	0.916738	142.276844	89.170414	17.380198	32.382510	43.061840	-15.554063	6.642754	149.619565	88.613819	12.664756	16.901565
1.189655	-2.700612	-0.651990	86.494170	0.119805	0.961636	0.322361	-2.182856	-1.244838	-26.881262	6.967982	0.121614	11.851840	18.449645	0.000000	0.994251	1.449990	-0.591041	8.113595	0.141609	8.507997	-9.732384	0.000000	-0.135783	-0.203659	-0.207085	-0.252163	-0.270866	-0.220027	-0.223078	-0.495176	-0.220027	-0.155186	-0.495176	-0.181199	-0.126088	-0.415301	-0.168256	-0.077586	-0.315467	-0.155313	-0.969884	-2.303829	-1.151743	0.000000	0.000000	-14.917069	1.200776	-2.440973	43.029743	-8.689027	1.448740	142.617479	89.178708	16.240032	33.333715	41.930582	-14.891986	7.352656	149.617784	88.671806	9.345706	15.949230
1.206897	-2.516510	-0.612700	86.473645	0.119219	0.961270	0.322274	-2.150397	-1.143581	-26.867184	7.176085	0.125246	11.978620	18.434726	0.000000	1.042813	1.295351	-0.712718	8.231786	0.143672	9.146963	-9.554200	0.000000	-0.134993	-0.155888	-0.139109	-0.250695	-0.207331	-0.147804	-0.221780	-0.379026	-0.147804	-0.154283	-0.379026	-0.121721	-0.125354	-0.317887	-0.113026	-0.077135	-0.241470	-0.104332	-0.964241	-1.763435	-0.773684	0.000000	0.000000	-14.885838	0.829831	-2.008435	43.301821	-8.562074	2.076247	142.938317	89.186220	14.655226	34.029998	40.904718	-14.335558	8.179338	149.624051	88.726417	5.827542	14.794702
1.224138	-2.330061	-0.567970	86.488408	0.118679	0.960940	0.322056	-2.149809	-1.025447	-26.884156	7.350582	0.128292	12.092091	18.424524	0.000000	1.051602	1.128727	-0.813271	8.291317	0.144711	9.788998	-9.351295	0.000000	-0.136541	-0.111300	-0.090606	-0.253571	-0.148029	-0.096269	-0.224324	-0.270614	-0.096269	-0.156053	-0.270614	-0.079280	-0.126792	-0.226962	-0.073617	-0.078020	-0.172403	-0.067954	-0.975302	-1.259045	-0.503923	0.000000	0.000000	-14.834113	0.491522	-1.585549	43.472831	-8.494175	2.726931	143.213127	89.191871	12.902377	34.472106	40.021637	-13.887803	9.173668	149.637433	88.764581	2.125329	13.391055
1.241379	-2.169934	-0.510549	86.543297	0.118248	0.960661	0.321727	-2.178481	-0.919709	-26.936786	7.509350	0.131063	12.214545	18.413764	0.000000	1.027002	0.981122	-0.835868	8.318597	0.145187	10.377843	-9.224528	0.000000	-0.142049	-0.075705	-0.062622	-0.263799	-0.100687	-0.066536	-0.233372	-0.184068	-0.066536	-0.162348	-0.184068	-0.054794	-0.131907	-0.154377	-0.050880	-0.081167	-0.117266	-0.046966	-1.014641	-0.856385	-0.348284	0.000000	0.000000	-14.758238	0.258023	-1.201951	43.512125	-8.481922	3.469491	143.440066	89.191502	10.652826	34.598721	39.345870	-13.569950	10.282835	149.651535	88.778178	-1.450699	11.896172
1.258621	-2.033897	-0.439539	86.626951	0.117940	0.960464	0.321245	-2.245939	-0.821087	-27.018845	7.637732	0.133304	12.324956	18.423051	0.000000	0.956289	0.848276	-0.831376	8.299650	0.144856	10.909277	-9.105460	0.000000	-0.151474	-0.048697	-0.056136	-0.281302	-0.064767	-0.059645	-0.248856	-0.118401	-0.059645	-0.173119	-0.118401	-0.049119	-0.140659	-0.099302	-0.045611	-0.086552	-0.075431	-0.042102	-1.081962	-0.550866	-0.312212	0.000000	0.000000	-14.659144	0.093151	-0.856395	43.418642	-8.481671	4.254977	143.607168	89.183936	8.194706	34.456362	38.829413	-13.415683	11.595849	149.657026	88.781385	-5.195352	10.058175
1.275862	-1.938175	-0.358894	86.736546	0.117773	0.960345	0.320627	-2.335750	-0.749826	-27.112530	7.761234	0.135459	12.429889	18.435472	0.000000	0.856211	0.747358	-0.791077	8.255303	0.144082	11.370246	-9.018985	0.000000	-0.163879	-0.032386	-0.065173	-0.304340	-0.043074	-0.069247	-0.269237	-0.078744	-0.069247	-0.187297	-0.078744	-0.057027	-0.152178	-0.066042	-0.052953	-0.093640	-0.050166	-0.048880	-1.170571	-0.366361	-0.362475	0.000000	0.000000	-14.555861	0.017155	-0.563720	43.202586	-8.492512	5.112979	143.753617	89.165318	5.396667	34.192486	38.453761	-13.379365	12.951364	149.661100	88.768133	-8.675958	8.207291
1.293103	-1.887143	-0.270697	86.858442	0.117752	0.960305	0.319883	-2.438186	-0.713323	-27.186306	7.893563	0.137769	12.517969	18.433575	0.000000	0.734600	0.686512	-0.710415	8.195938	0.143046	11.749551	-8.997649	0.000000	-0.178817	-0.026103	-0.084149	-0.332082	-0.034717	-0.089408	-0.293779	-0.063467	-0.089408	-0.204370	-0.063467	-0.073630	-0.166050	-0.053229	-0.068371	-0.102176	-0.040434	-0.063112	-1.277275	-0.295284	-0.468011	0.000000	0.000000	-14.459277	0.008757	-0.301833	42.888035	-8.475528	5.966305	143.905868	89.138353	2.626016	33.986130	38.158652	-13.427196	14.210055	149.665128	88.744215	-11.605153	6.455454
1.310345	-1.880392	-0.193900	86.981510	0.117822	0.960305	0.319027	-2.510976	-0.725743	-27.225361	8.079390	0.141012	12.599699	18.408779	0.000000	0.629453	0.671250	-0.592317	8.155339	0.142338	12.062904	-9.066137	0.000000	-0.193101	-0.028355	-0.106123	-0.358607	-0.037712	-0.112756	-0.317245	-0.068942	-0.112756	-0.220695	-0.068942	-0.092857	-0.179313	-0.057821	-0.086225	-0.110338	-0.043922	-0.079592	-1.379300	-0.320756	-0.590223	0.000000	0.000000	-14.381728	0.055428	-0.104074	42.487960	-8.444147	6.776279	144.087551	89.109870	0.032191	33.863568	37.889609	-13.501638	15.307177	149.668445	88.717252	-13.877311	4.888997
1.327586	-1.909700	-0.108127	87.083228	0.118032	0.960358	0.318075	-2.585692	-0.773876	-27.244135	8.286331	0.144624	12.658523	18.416340	0.000000	0.506919	0.685701	-0.526204	8.110576	0.141556	12.343497	-9.104566	0.000000	-0.210448	-0.037364	-0.120479	-0.390823	-0.049694	-0.128009	-0.345745	-0.090846	-0.128009	-0.240521	-0.090846	-0.105419	-0.195422	-0.076192	-0.097889	-0.120250	-0.057876	-0.090359	-1.503210	-0.422665	-0.670068	0.000000	0.000000	-14.308970	0.138863	0.036847	42.052121	-8.433431	7.625375	144.337526	89.083089	-2.658763	33.878051	37.645463	-13.617583	16.289621	149.674927	88.692121	-15.681122	3.627563
1.344828	-1.998688	-0.022574	87.194472	0.118333	0.960445	0.317001	-2.657613	-0.873966	-27.238811	8.501848	0.148385	12.707699	18.377356	0.000000	0.388793	0.765697	-0.385189	8.080922	0.141039	12.548367	-9.260373	0.000000	-0.228210	-0.055874	-0.131969	-0.423808	-0.074313	-0.140217	-0.374926	-0.135853	-0.140217	-0.260821	-0.135853	-0.115473	-0.211916	-0.113939	-0.107225	-0.130399	-0.086549	-0.098977	-1.630080	-0.632060	-0.733972	0.000000	0.000000	-14.244885	0.302489	0.099161	41.549419	-8.368267	8.321365	144.621715	89.064842	-4.801761	33.909106	37.379155	-13.711375	16.981608	149.670581	88.673122	-16.575237	2.643331
1.362069	-2.105797	0.047799	87.277702	0.118649	0.960515	0.315879	-2.675890	-1.008109	-27.187714	8.784564	0.153320	12.781275	18.311841	0.000000	0.308742	0.872457	-0.232140	8.105460	0.141467	12.706400	-9.536582	0.000000	-0.244683	-0.076079	-0.131908	-0.454401	-0.101185	-0.140152	-0.401990	-0.184978	-0.140152	-0.279648	-0.184978	-0.115419	-0.227213	-0.155140	-0.107175	-0.139812	-0.117846	-0.098931	-1.747745	-0.860619	-0.733631	0.000000	0.000000	-14.199923	0.455857	0.136801	41.044321	-8.291057	8.861948	144.934311	89.051148	-6.279046	33.992737	37.069285	-13.737869	17.381667	149.670025	88.656019	-16.648963	2.122180
1.379310	-2.244912	0.106374	87.357401	0.118985	0.960564	0.314724	-2.654128	-1.179913	-27.108647	9.106252	0.158934	12.881114	18.190343	0.000000	0.273128	1.016578	-0.075880	8.202775	0.143165	12.821595	-9.874457	0.000000	-0.260819	-0.100670	-0.127006	-0.484367	-0.133891	-0.134944	-0.428500	-0.244769	-0.134944	-0.298090	-0.244769	-0.111131	-0.242197	-0.205287	-0.103193	-0.149032	-0.155938	-0.095255	-1.863005	-1.138801	-0.706371	0.000000	0.000000	-14.160085	0.645794	0.153019	40.523325	-8.182866	9.242653	145.260694	89.041836	-7.114526	34.035214	36.705721	-13.743512	17.563416	149.669617	88.644294	-16.193274	1.908609
1.396552	-2.426933	0.153765	87.459415	0.119294	0.960601	0.313568	-2.588607	-1.403780	-27.028584	9.475211	0.165374	13.017884	17.989639	0.000000	0.282202	1.213606	0.146388	8.368344	0.146055	12.857359	-10.308377	0.000000	-0.276983	-0.130972	-0.122846	-0.514385	-0.174193	-0.130524	-0.455056	-0.318446	-0.130524	-0.316564	-0.318446	-0.107490	-0.257207	-0.267078	-0.099812	-0.158268	-0.202876	-0.092134	-1.978463	-1.481582	-0.683231	0.000000	0.000000	-14.120982	0.864971	0.141470	39.987566	-8.031438	9.434676	145.569573	89.036501	-7.207307	33.967364	36.306649	-13.698426	17.449486	149.669497	88.641206	-14.969775	2.030506
1.413793	-2.609219	0.179229	87.598340	0.119515	0.960609	0.312458	-2.474619	-1.632749	-26.965450	9.877745	0.172399	13.172510	17.710173	0.000000	0.360014	1.418555	0.456360	8.626864	0.150567	12.838465	-10.817787	0.000000	-0.292752	-0.160699	-0.123104	-0.543671	-0.213729	-0.130798	-0.480963	-0.390723	-0.130798	-0.334587	-0.390723	-0.107716	-0.271850	-0.327697	-0.100022	-0.167279	-0.248922	-0.092328	-2.091101	-1.817854	-0.684669	0.000000	0.000000	-14.095178	1.090689	0.155272	39.446357	-7.915924	9.569061	145.842264	89.030992	-7.085748	33.733854	35.842514	-13.608506	17.129464	149.672384	88.647516	-13.395093	2.355372
1.431034	-2.797525	0.179149	87.770074	0.119637	0.960600	0.311398	-2.310561	-1.877573	-26.944922	10.313242	0.180000	13.339419	17.383897	0.000000	0.494824	1.638446	0.843869	8.941741	0.156063	12.740137	-11.397962	0.000000	-0.307535	-0.190410	-0.127198	-0.571124	-0.253245	-0.135148	-0.505250	-0.462962	-0.135148	-0.351482	-0.462962	-0.111299	-0.285577	-0.388283	-0.103349	-0.175726	-0.294945	-0.095399	-2.196694	-2.153953	-0.707440	0.000000	0.000000	-14.080152	1.327676	0.173733	38.913518	-7.841505	9.650797	146.059327	89.027047	-6.811615	33.342711	35.315524	-13.485899	16.673399	149.676183	88.666659	-11.654260	2.712486
1.448276	-2.979817	0.157725	88.004206	0.119621	0.960597	0.310399	-2.112836	-2.117209	-26.965476	10.764026	0.187868	13.508352	16.962883	0.000000	0.682607	1.858625	1.325460	9.307298	0.162443	12.580088	-11.999975	0.000000	-0.321814	-0.218528	-0.139633	-0.597641	-0.290642	-0.148360	-0.528708	-0.531329	-0.148360	-0.367801	-0.531329	-0.122179	-0.298836	-0.445622	-0.113452	-0.183885	-0.338500	-0.104725	-2.298685	-2.472031	-0.776596	0.000000	0.000000	-14.087896	1.559822	0.183027	38.411505	-7.786947	9.614948	146.190244	89.025344	-6.215812	32.812463	34.749361	-13.311702	16.079595	149.680903	88.691350	-9.735337	3.063382
1.465517	-3.149062	0.115872	88.300148	0.119439	0.960599	0.309474	-1.885537	-2.347888	-27.032185	11.224793	0.195910	13.684570	16.465559	0.000000	0.914987	2.074263	1.887096	9.706514	0.169411	12.356433	-12.612804	0.000000	-0.335649	-0.243939	-0.155782	-0.623333	-0.324439	-0.165519	-0.551437	-0.593114	-0.165519	-0.383613	-0.593114	-0.136309	-0.311683	-0.497441	-0.126573	-0.191790	-0.377862	-0.116837	-2.397504	-2.759491	-0.866414	0.000000	0.000000	-14.110359	1.794678	0.136732	37.958455	-7.757057	9.383687	146.230639	89.031576	-5.132562	32.158907	34.192760	-13.053483	15.277336	149.688246	88.720995	-7.384588	3.555507
1.482759	-3.288975	0.053807	88.656371	0.119094	0.960633	0.308594	-1.640004	-2.546702	-27.155070	11.676251	0.203789	13.851020	15.900484	0.000000	1.171513	2.261309	2.485778	10.104844	0.176363	12.084836	-13.147331	0.000000	-0.348810	-0.263497	-0.180980	-0.647776	-0.350451	-0.192291	-0.573061	-0.640666	-0.192291	-0.398655	-0.640666	-0.158358	-0.323905	-0.537323	-0.147046	-0.199310	-0.408157	-0.135735	-2.491518	-2.980729	-1.006557	0.000000	0.000000	-14.149795	1.987201	0.071015	37.588324	-7.754908	9.064492	146.170779	89.046092	-3.858196	31.401707	33.663365	-12.779523	14.520014	149.692011	88.746176	-5.345059	3.726810
